<svg width="26" height="26" viewBox="0 0 26 26" fill="none" xmlns="http://www.w3.org/2000/svg">
<path fill-rule="evenodd" clip-rule="evenodd" d="M13 3.25C13.2653 3.25004 13.5214 3.34745 13.7197 3.52377C13.918 3.7001 14.0447 3.94306 14.0757 4.20658L14.0833 4.33333V5.41667H18.4167C18.6928 5.41697 18.9584 5.5227 19.1591 5.71225C19.3599 5.9018 19.4807 6.16087 19.4969 6.43651C19.5131 6.71216 19.4234 6.98358 19.2462 7.19532C19.069 7.40706 18.8176 7.54314 18.5434 7.57575L18.4167 7.58333H14.0833V11.9167H15.7083C16.8388 11.9166 17.9246 12.3584 18.7339 13.1478C19.5433 13.9371 20.0121 15.0115 20.0404 16.1416C20.0686 17.2718 19.6541 18.3683 18.8853 19.1971C18.1164 20.0259 17.0541 20.5214 15.925 20.5779L15.7083 20.5833H14.0833V21.6667C14.083 21.9428 13.9773 22.2084 13.7877 22.4091C13.5982 22.6099 13.3391 22.7308 13.0635 22.7469C12.7878 22.7631 12.5164 22.6734 12.3047 22.4962C12.0929 22.319 11.9568 22.0676 11.9242 21.7934L11.9167 21.6667V20.5833H7.58332C7.3072 20.583 7.04162 20.4773 6.84084 20.2877C6.64006 20.0982 6.51923 19.8391 6.50305 19.5635C6.48687 19.2878 6.57655 19.0164 6.75377 18.8047C6.931 18.5929 7.18238 18.4569 7.45657 18.4243L7.58332 18.4167H11.9167V14.0833H10.2917C9.16114 14.0834 8.07537 13.6416 7.26604 12.8522C6.4567 12.0629 5.98788 10.9885 5.95961 9.85837C5.93134 8.7282 6.34585 7.63174 7.11471 6.80293C7.88357 5.97412 8.94588 5.47859 10.075 5.42208L10.2917 5.41667H11.9167V4.33333C11.9167 4.04602 12.0308 3.77047 12.234 3.5673C12.4371 3.36414 12.7127 3.25 13 3.25ZM15.7083 14.0833H14.0833V18.4167H15.7083C16.283 18.4167 16.8341 18.1884 17.2404 17.7821C17.6467 17.3757 17.875 16.8246 17.875 16.25C17.875 15.6754 17.6467 15.1243 17.2404 14.7179C16.8341 14.3116 16.283 14.0833 15.7083 14.0833ZM11.9167 7.58333H10.2917C9.71702 7.58333 9.16592 7.81161 8.75959 8.21794C8.35326 8.62426 8.12499 9.17536 8.12499 9.75C8.12499 10.3246 8.35326 10.8757 8.75959 11.2821C9.16592 11.6884 9.71702 11.9167 10.2917 11.9167H11.9167V7.58333Z" fill="#F9E8D0"/>
</svg>
