<svg width="26" height="26" viewBox="0 0 26 26" fill="none" xmlns="http://www.w3.org/2000/svg">
<path d="M4.33337 15.1667C4.33337 13.2708 4.78476 11.5826 5.68754 10.1021C6.59032 8.62153 7.58337 7.37569 8.66671 6.36458C9.75004 5.35347 10.7431 4.58142 11.6459 4.04842L13 3.25V6.825C13 7.49306 13.2257 8.021 13.6771 8.40883C14.1285 8.79667 14.6341 8.99094 15.1938 8.99167C15.5007 8.99167 15.7943 8.92847 16.0745 8.80208C16.3548 8.67569 16.6119 8.46806 16.8459 8.17917L17.3334 7.58333C18.6334 8.34167 19.6806 9.39322 20.475 10.738C21.2695 12.0828 21.6667 13.559 21.6667 15.1667C21.6667 16.7556 21.2785 18.2047 20.5021 19.5141C19.7257 20.8235 18.7056 21.8566 17.4417 22.6135C17.7487 22.1802 17.9881 21.706 18.16 21.1911C18.3318 20.6761 18.4174 20.1305 18.4167 19.5542C18.4167 18.8319 18.2813 18.1502 18.0105 17.5088C17.7396 16.8675 17.3514 16.2944 16.8459 15.7896L13 12.025L9.18129 15.7896C8.65768 16.3132 8.26046 16.891 7.98962 17.5229C7.71879 18.1549 7.58337 18.8319 7.58337 19.5542C7.58337 20.1319 7.66932 20.6783 7.84121 21.1933C8.0131 21.7082 8.25215 22.182 8.55837 22.6146C7.29449 21.8563 6.27435 20.8224 5.49796 19.513C4.72157 18.2036 4.33337 16.7548 4.33337 15.1667ZM13 15.0583L15.3021 17.3063C15.6091 17.6132 15.8438 17.9563 16.0063 18.3354C16.1688 18.7146 16.25 19.1208 16.25 19.5542C16.25 20.4389 15.9341 21.1925 15.3021 21.8151C14.6702 22.4376 13.9028 22.7493 13 22.75C12.0973 22.75 11.3299 22.4384 10.698 21.8151C10.066 21.1918 9.75004 20.4382 9.75004 19.5542C9.75004 19.1389 9.83129 18.737 9.99379 18.3484C10.1563 17.9599 10.391 17.6125 10.698 17.3063L13 15.0583Z" fill="#F9E8D0"/>
</svg>
