<svg width="15" height="15" viewBox="0 0 15 15" fill="none" xmlns="http://www.w3.org/2000/svg">
<path d="M10.625 1.875H4.375C2.99375 1.875 1.875 2.99375 1.875 4.375V10.625C1.875 12.0063 2.99375 13.125 4.375 13.125H11.875C12.5688 13.125 13.125 12.5688 13.125 11.875V5.625C13.125 5.29348 12.9933 4.97554 12.7589 4.74112C12.5245 4.5067 12.2065 4.375 11.875 4.375V3.125C11.875 2.79348 11.7433 2.47554 11.5089 2.24112C11.2745 2.0067 10.9565 1.875 10.625 1.875ZM10.625 3.125V4.375H4.375C3.91875 4.375 3.49375 4.5 3.125 4.7125V4.375C3.125 3.6875 3.6875 3.125 4.375 3.125M9.6875 9.6875C9.16875 9.6875 8.75 9.26875 8.75 8.75C8.75 8.23125 9.16875 7.8125 9.6875 7.8125C10.2063 7.8125 10.625 8.23125 10.625 8.75C10.625 9.26875 10.2063 9.6875 9.6875 9.6875Z" fill="#F9E8D0"/>
</svg>
